HIERARCHY
ROOT Hips
{
  OFFSET -22.849 26.047 -320.125
  CHANNELS 6 Xposition Yposition Zposition Zrotation Xrotation Yrotation
  JOINT LeftUpLeg
  {
    OFFSET 7.638 -7.613 1.852
    CHANNELS 6 Xposition Yposition Zposition Zrotation Xrotation Yrotation
    JOINT LeftLeg
    {
      OFFSET 0.000 -55.560 0.000
      CHANNELS 6 Xposition Yposition Zposition Zrotation Xrotation Yrotation
      JOINT LeftFoot
      {
        OFFSET 0.000 -43.493 -0.000
        CHANNELS 6 Xposition Yposition Zposition Zrotation Xrotation Yrotation
        End Site
        {
          OFFSET 0.000 -9.773 5.642
        }
      }
    }
  }
  JOINT RightUpLeg
  {
    OFFSET -7.765 -7.689 1.492
    CHANNELS 6 Xposition Yposition Zposition Zrotation Xrotation Yrotation
    JOINT RightLeg
    {
      OFFSET 0.000 -56.794 0.000
      CHANNELS 6 Xposition Yposition Zposition Zrotation Xrotation Yrotation
      JOINT RightFoot
      {
        OFFSET -0.000 -43.554 -0.000
        CHANNELS 6 Xposition Yposition Zposition Zrotation Xrotation Yrotation
        End Site
        {
          OFFSET 0.000 -9.895 5.713
        }
      }
    }
  }
  JOINT Spine
  {
    OFFSET 0.000 5.901 -5.901
    CHANNELS 6 Xposition Yposition Zposition Zrotation Xrotation Yrotation
    JOINT LeftShoulder
    {
      OFFSET -0.000 32.715 0.000
      CHANNELS 6 Xposition Yposition Zposition Zrotation Xrotation Yrotation
      JOINT LeftArm
      {
        OFFSET 17.651 0.000 -0.000
        CHANNELS 6 Xposition Yposition Zposition Zrotation Xrotation Yrotation
        JOINT LeftForeArm
        {
          OFFSET 26.439 0.000 0.000
          CHANNELS 6 Xposition Yposition Zposition Zrotation Xrotation Yrotation
          JOINT LeftHand
          {
            OFFSET 26.549 -0.000 -0.000
            CHANNELS 6 Xposition Yposition Zposition Zrotation Xrotation Yrotation
            JOINT LeftHandThumb1
            {
            OFFSET 4.970 -0.620 3.390
            CHANNELS 6 Xposition Yposition Zposition Zrotation Xrotation Yrotation
              JOINT LeftHandThumb2
              {
              OFFSET 2.150 -0.000 0.000
              CHANNELS 6 Xposition Yposition Zposition Zrotation Xrotation Yrotation
                JOINT LeftHandThumb3
                {
                OFFSET 2.200 -0.000 0.000
                CHANNELS 6 Xposition Yposition Zposition Zrotation Xrotation Yrotation
                  JOINT LeftHandThumb4
                  {
                  OFFSET 1.700 -0.000 0.000
                  CHANNELS 6 Xposition Yposition Zposition Zrotation Xrotation Yrotation
                  }
                }
              }
            }
            JOINT LeftHandIndex1
            {
            OFFSET 8.730 0.680 2.070
            CHANNELS 6 Xposition Yposition Zposition Zrotation Xrotation Yrotation
              JOINT LeftHandIndex2
              {
              OFFSET 2.670 -0.000 0.000
              CHANNELS 6 Xposition Yposition Zposition Zrotation Xrotation Yrotation
                JOINT LeftHandIndex3
                {
                OFFSET 2.130 -0.000 0.000
                CHANNELS 6 Xposition Yposition Zposition Zrotation Xrotation Yrotation
                  JOINT LeftHandIndex4
                  {
                  OFFSET 1.800 -0.000 0.000
                  CHANNELS 6 Xposition Yposition Zposition Zrotation Xrotation Yrotation
                  }
                }
              }
            }
            JOINT LeftHandMiddle1
            {
            OFFSET 9.220 0.670 0.550
            CHANNELS 6 Xposition Yposition Zposition Zrotation Xrotation Yrotation
              JOINT LeftHandMiddle2
              {
              OFFSET 2.660 -0.000 0.000
              CHANNELS 6 Xposition Yposition Zposition Zrotation Xrotation Yrotation
                JOINT LeftHandMiddle3
                {
                OFFSET 2.280 -0.000 0.000
                CHANNELS 6 Xposition Yposition Zposition Zrotation Xrotation Yrotation
                  JOINT LeftHandMiddle4
                  {
                  OFFSET 1.500 -0.000 0.000
                  CHANNELS 6 Xposition Yposition Zposition Zrotation Xrotation Yrotation
                  }
                }
              }
            }
            JOINT LeftHandRing1
            {
            OFFSET 9.250 0.670 -1.130
            CHANNELS 6 Xposition Yposition Zposition Zrotation Xrotation Yrotation
              JOINT LeftHandRing2
              {
              OFFSET 2.470 -0.000 0.000
              CHANNELS 6 Xposition Yposition Zposition Zrotation Xrotation Yrotation
                JOINT LeftHandRing3
                {
                OFFSET 2.210 -0.000 0.000
                CHANNELS 6 Xposition Yposition Zposition Zrotation Xrotation Yrotation
                  JOINT LeftHandRing4
                  {
                  OFFSET 1.800 -0.000 0.000
                  CHANNELS 6 Xposition Yposition Zposition Zrotation Xrotation Yrotation
                  }
                }
              }
            }
            JOINT LeftHandPinky1
            {
            OFFSET 9.350 0.660 -2.720
            CHANNELS 6 Xposition Yposition Zposition Zrotation Xrotation Yrotation
              JOINT LeftHandPinky2
              {
              OFFSET 1.630 -0.000 0.000
              CHANNELS 6 Xposition Yposition Zposition Zrotation Xrotation Yrotation
                JOINT LeftHandPinky3
                {
                OFFSET 1.710 -0.000 0.000
                CHANNELS 6 Xposition Yposition Zposition Zrotation Xrotation Yrotation
                  JOINT LeftHandPinky4
                  {
                  OFFSET 1.800 -0.000 0.000
                  CHANNELS 6 Xposition Yposition Zposition Zrotation Xrotation Yrotation
                  }
                }
              }
            }
          }
        }
      }
    }
    JOINT RightShoulder
    {
      OFFSET -0.000 32.715 0.000
      CHANNELS 6 Xposition Yposition Zposition Zrotation Xrotation Yrotation
      JOINT RightArm
      {
        OFFSET -18.960 0.000 -0.000
        CHANNELS 6 Xposition Yposition Zposition Zrotation Xrotation Yrotation
        JOINT RightForeArm
        {
          OFFSET -26.691 0.000 0.000
          CHANNELS 6 Xposition Yposition Zposition Zrotation Xrotation Yrotation
          JOINT RightHand
          {
            OFFSET -26.246 -0.000 -0.000
            CHANNELS 6 Xposition Yposition Zposition Zrotation Xrotation Yrotation
            JOINT RightHandThumb1
            {
            OFFSET -4.970 -0.620 3.390
            CHANNELS 6 Xposition Yposition Zposition Zrotation Xrotation Yrotation
              JOINT RightHandThumb2
              {
              OFFSET -2.150 0.000 0.000
              CHANNELS 6 Xposition Yposition Zposition Zrotation Xrotation Yrotation
                JOINT RightHandThumb3
                {
                OFFSET -2.200 0.000 0.000
                CHANNELS 6 Xposition Yposition Zposition Zrotation Xrotation Yrotation
                  JOINT RightHandThumb4
                  {
                  OFFSET -1.700 0.000 0.000
                  CHANNELS 6 Xposition Yposition Zposition Zrotation Xrotation Yrotation
                  }
                }
              }
            }
            JOINT RightHandIndex1
            {
            OFFSET -8.730 0.680 2.070
            CHANNELS 6 Xposition Yposition Zposition Zrotation Xrotation Yrotation
              JOINT RightHandIndex2
              {
              OFFSET -2.670 0.000 0.000
              CHANNELS 6 Xposition Yposition Zposition Zrotation Xrotation Yrotation
                JOINT RightHandIndex3
                {
                OFFSET -2.130 0.000 0.000
                CHANNELS 6 Xposition Yposition Zposition Zrotation Xrotation Yrotation
                  JOINT RightHandIndex4
                  {
                  OFFSET -1.800 0.000 0.000
                  CHANNELS 6 Xposition Yposition Zposition Zrotation Xrotation Yrotation
                  }
                }
              }
            }
            JOINT RightHandMiddle1
            {
            OFFSET -9.220 0.670 0.550
            CHANNELS 6 Xposition Yposition Zposition Zrotation Xrotation Yrotation
              JOINT RightHandMiddle2
              {
              OFFSET -2.660 0.000 0.000
              CHANNELS 6 Xposition Yposition Zposition Zrotation Xrotation Yrotation
                JOINT RightHandMiddle3
                {
                OFFSET -2.280 0.000 0.000
                CHANNELS 6 Xposition Yposition Zposition Zrotation Xrotation Yrotation
                  JOINT RightHandMiddle4
                  {
                  OFFSET -1.500 0.000 0.000
                  CHANNELS 6 Xposition Yposition Zposition Zrotation Xrotation Yrotation
                  }
                }
              }
            }
            JOINT RightHandRing1
            {
            OFFSET -9.250 0.670 -1.130
            CHANNELS 6 Xposition Yposition Zposition Zrotation Xrotation Yrotation
              JOINT RightHandRing2
              {
              OFFSET -2.470 0.000 0.000
              CHANNELS 6 Xposition Yposition Zposition Zrotation Xrotation Yrotation
                JOINT RightHandRing3
                {
                OFFSET -2.210 0.000 0.000
                CHANNELS 6 Xposition Yposition Zposition Zrotation Xrotation Yrotation
                  JOINT RightHandRing4
                  {
                  OFFSET -1.800 0.000 0.000
                  CHANNELS 6 Xposition Yposition Zposition Zrotation Xrotation Yrotation
                  }
                }
              }
            }
            JOINT RightHandPinky1
            {
            OFFSET -9.350 0.660 -2.720
            CHANNELS 6 Xposition Yposition Zposition Zrotation Xrotation Yrotation
              JOINT RightHandPinky2
              {
              OFFSET -1.630 0.000 0.000
              CHANNELS 6 Xposition Yposition Zposition Zrotation Xrotation Yrotation
                JOINT RightHandPinky3
                {
                OFFSET -1.710 0.000 0.000
                CHANNELS 6 Xposition Yposition Zposition Zrotation Xrotation Yrotation
                  JOINT RightHandPinky4
                  {
                  OFFSET -1.800 0.000 0.000
                  CHANNELS 6 Xposition Yposition Zposition Zrotation Xrotation Yrotation
                  }
                }
              }
            }
          }
        }
      }
    }
    JOINT Neck
    {
      OFFSET -0.000 32.715 0.000
      CHANNELS 6 Xposition Yposition Zposition Zrotation Xrotation Yrotation
      JOINT Head
      {
        OFFSET -0.000 22.187 -0.000
        CHANNELS 6 Xposition Yposition Zposition Zrotation Xrotation Yrotation
        End Site
        {
          OFFSET -0.000 0.089 -0.000
        }
      }
    }
  }
}
MOTION
Frames:	6
Frame Time:	0.0333333
-23.5306 31.2855 -317.65 0.95358 -1.21258 -4.92689 7.77195 -7.9174 2.16732 4.41779 -2.31939 -2.96102 -5.96046e-06 -57.4996 0 -8.44145 9.8282 1.45112 5.96046e-06 -44.4655 0.000119209 2.13952 -13.9113 1.81927 -7.8488 -7.92644 1.31273 -4.01379 -1.18532 -3.22245 0 -57.7871 -2.38419e-05 4.68455 11.2111 -0.912752 0 -44.7383 -2.38419e-05 3.23821 -16.5116 2.29404 1.19209e-05 6.19494 -6.19495 -0.60534 -3.2266 0.958389 -5.96046e-06 32.7153 7.15256e-05 -15.8757 1.04587e-05 -2.85436 18.5181 -5.96046e-06 -2.38419e-05 -16.783 -4.44232 0.407734 24.8331 5.96046e-06 7.15256e-05 -9.70221 2.48681 -14.2399 25.8117 1.19209e-05 -4.76837e-05 28.3679 1.49691 -1.52382 0.0062 0.0497 0.0339 0 0 0 0 0.0215 0 0 0 0 0 0.022 0 0 0 0 0 0.017 0 0 0 0 -0.0068 0.0873 0.0207 0 0 0 0 0.0267 0 0 0 0 0 0.0213 0 0 0 0 0 0.018 0 0 0 0 -0.0067 0.0922 0.0055 0 0 0 0 0.0266 0 0 0 0 0 0.0228 0 0 0 0 0 0.015 0 0 0 0 -0.0067 0.0925 -0.0113 0 0 0 0 0.0247 0 0 0 0 0 0.0221 0 0 0 0 0 0.018 0 0 0 0 -0.0066 0.0935 -0.0272 0 0 0 0 0.0163 0 0 0 0 0 0.0171 0 0 0 0 0 0.018 0 0 0 0 -5.96046e-06 32.7153 7.15256e-05 19.032 -1.28066e-06 2.81143 -18.8005 1.19209e-05 2.38419e-05 22.8146 -9.03787 4.53004 -26.9144 0 4.76837e-05 5.38387 -0.127153 -1.34893 -27.9609 0 -4.76837e-05 26.206 5.46505 12.0455 -0.0062 0.0497 0.0339 0 0 0 0 0.0215 0 0 0 0 0 0.022 0 0 0 0 0 0.017 0 0 0 0 0.0068 0.0873 0.0207 0 0 0 0 0.0267 0 0 0 0 0 0.0213 0 0 0 0 0 0.018 0 0 0 0 0.0067 0.0922 0.0055 0 0 0 0 0.0266 0 0 0 0 0 0.0228 0 0 0 0 0 0.015 0 0 0 0 0.0067 0.0925 -0.0113 0 0 0 0 0.0247 0 0 0 0 0 0.0221 0 0 0 0 0 0.018 0 0 0 0 0.0066 0.0935 -0.0272 0 0 0 0 0.0163 0 0 0 0 0 0.0171 0 0 0 0 0 0.018 0 0 0 0 -5.96046e-06 32.7153 7.15256e-05 0.19599 4.08208 -0.0139523 -1.19209e-05 24.2158 4.76837e-05 9.98015e-06 -9.71167e-06 8.53774e-07 
-23.1229 26.8443 -317.423 1.18687 0.516232 -5.94677 7.78534 -7.51581 2.28956 2.57564 -3.80871 -1.77169 0 -56.2961 0 -8.62363 12.152 -1.74669e-06 1.19209e-05 -42.5536 -4.76837e-05 6.1291 -14.5805 4.80273 -7.88392 -7.55486 1.40674 -1.62222 -4.18688 -3.63776 1.19209e-05 -56.0478 4.76837e-05 2.57418 15.4906 8.85956e-07 5.96046e-06 -43.401 -9.53674e-05 1.57356 -19.8504 1.08273 0 6.31793 -6.31795 -0.57303 -4.1921 0.999694 -1.19209e-05 32.7154 0 -17.4766 1.23797e-05 -3.74791 18.1367 -1.78814e-05 0 -35.0319 -1.01992 4.54381 29.1527 -4.47035e-06 2.38419e-05 -5.35718 1.64435 -17.0144 28.011 1.11759e-05 0 -14.5282 0.58862 0.660733 0.0062 0.0497 0.0339 0 0 0 0 0.0215 0 0 0 0 0 0.022 0 0 0 0 0 0.017 0 0 0 0 -0.0068 0.0873 0.0207 0 0 0 0 0.0267 0 0 0 0 0 0.0213 0 0 0 0 0 0.018 0 0 0 0 -0.0067 0.0922 0.0055 0 0 0 0 0.0266 0 0 0 0 0 0.0228 0 0 0 0 0 0.015 0 0 0 0 -0.0067 0.0925 -0.0113 0 0 0 0 0.0247 0 0 0 0 0 0.0221 0 0 0 0 0 0.018 0 0 0 0 -0.0066 0.0935 -0.0272 0 0 0 0 0.0163 0 0 0 0 0 0.0171 0 0 0 0 0 0.018 0 0 0 0 -1.19209e-05 32.7154 0 20.0844 -1.28066e-06 3.57059 -19.0361 -2.98023e-05 0 37.5634 -4.47156 0.801114 -30.1601 0 4.76837e-05 2.73131 0.158051 3.3093 -28.8112 -3.57628e-05 -7.15256e-05 25.0085 1.99095 6.38199 -0.0062 0.0497 0.0339 0 0 0 0 0.0215 0 0 0 0 0 0.022 0 0 0 0 0 0.017 0 0 0 0 0.0068 0.0873 0.0207 0 0 0 0 0.0267 0 0 0 0 0 0.0213 0 0 0 0 0 0.018 0 0 0 0 0.0067 0.0922 0.0055 0 0 0 0 0.0266 0 0 0 0 0 0.0228 0 0 0 0 0 0.015 0 0 0 0 0.0067 0.0925 -0.0113 0 0 0 0 0.0247 0 0 0 0 0 0.0221 0 0 0 0 0 0.018 0 0 0 0 0.0066 0.0935 -0.0272 0 0 0 0 0.0163 0 0 0 0 0 0.0171 0 0 0 0 0 0.018 0 0 0 0 -1.19209e-05 32.7154 0 1.21062 3.18183 -0.0672051 1.19209e-05 24.6912 -2.38419e-05 1.01586e-05 -1.01919e-05 0 
-23.1229 26.8443 -317.423 1.18687 0.516232 -5.94677 7.78534 -7.51581 2.28956 2.57564 -3.80871 -1.77169 0 -56.2961 0 -8.62363 12.152 -1.74669e-06 1.19209e-05 -42.5536 -4.76837e-05 6.1291 -14.5805 4.80273 -7.88392 -7.55486 1.40674 -1.62222 -4.18688 -3.63776 1.19209e-05 -56.0478 4.76837e-05 2.57418 15.4906 8.85956e-07 5.96046e-06 -43.401 -9.53674e-05 1.57356 -19.8504 1.08273 0 6.31793 -6.31795 -0.57303 -4.1921 0.999694 -1.19209e-05 32.7154 0 -17.4766 1.23797e-05 -3.74791 18.1367 -1.78814e-05 0 -35.0319 -1.01992 4.54381 29.1527 -4.47035e-06 2.38419e-05 -5.35718 1.64435 -17.0144 28.011 1.11759e-05 0 -14.5282 0.58862 0.660733 0.0062 0.0497 0.0339 0 0 0 0 0.0215 0 0 0 0 0 0.022 0 0 0 0 0 0.017 0 0 0 0 -0.0068 0.0873 0.0207 0 0 0 0 0.0267 0 0 0 0 0 0.0213 0 0 0 0 0 0.018 0 0 0 0 -0.0067 0.0922 0.0055 0 0 0 0 0.0266 0 0 0 0 0 0.0228 0 0 0 0 0 0.015 0 0 0 0 -0.0067 0.0925 -0.0113 0 0 0 0 0.0247 0 0 0 0 0 0.0221 0 0 0 0 0 0.018 0 0 0 0 -0.0066 0.0935 -0.0272 0 0 0 0 0.0163 0 0 0 0 0 0.0171 0 0 0 0 0 0.018 0 0 0 0 -1.19209e-05 32.7154 0 20.0844 -1.28066e-06 3.57059 -19.0361 -2.98023e-05 0 37.5634 -4.47156 0.801114 -30.1601 0 4.76837e-05 2.73131 0.158051 3.3093 -28.8112 -3.57628e-05 -7.15256e-05 25.0085 1.99095 6.38199 -0.0062 0.0497 0.0339 0 0 0 0 0.0215 0 0 0 0 0 0.022 0 0 0 0 0 0.017 0 0 0 0 0.0068 0.0873 0.0207 0 0 0 0 0.0267 0 0 0 0 0 0.0213 0 0 0 0 0 0.018 0 0 0 0 0.0067 0.0922 0.0055 0 0 0 0 0.0266 0 0 0 0 0 0.0228 0 0 0 0 0 0.015 0 0 0 0 0.0067 0.0925 -0.0113 0 0 0 0 0.0247 0 0 0 0 0 0.0221 0 0 0 0 0 0.018 0 0 0 0 0.0066 0.0935 -0.0272 0 0 0 0 0.0163 0 0 0 0 0 0.0171 0 0 0 0 0 0.018 0 0 0 0 -1.19209e-05 32.7154 0 1.21062 3.18183 -0.0672051 1.19209e-05 24.6912 -2.38419e-05 1.01586e-05 -1.01919e-05 0 
-23.0473 26.1503 -317.397 1.14278 0.698853 -6.06612 7.79254 -7.48874 2.2819 2.32782 -4.00715 -1.6412 -5.96046e-06 -56.1287 -2.38419e-05 -8.64904 12.7633 0 1.78814e-05 -42.2506 -2.38419e-05 6.72849 -15.0127 5.32618 -7.87061 -7.54713 1.3998 -1.17769 -4.59538 -3.61491 2.38419e-05 -55.7652 -2.38419e-05 2.11941 16.2758 -3.55767e-06 0 -43.2061 -7.15256e-05 1.18738 -20.6142 0.778385 -5.96046e-06 6.32351 -6.32348 -0.503671 -4.1929 0.929134 1.78814e-05 32.7153 2.38419e-05 -17.8934 1.23797e-05 -3.85644 18.0802 -5.96046e-06 -2.38419e-05 -37.7335 -1.03518 4.98586 29.7941 4.47035e-06 0 -7.1227 2.19275 -17.0241 28.8909 2.23517e-06 0 -14.9783 0.497163 0.434952 0.0062 0.0497 0.0339 0 0 0 0 0.0215 0 0 0 0 0 0.022 0 0 0 0 0 0.017 0 0 0 0 -0.0068 0.0873 0.0207 0 0 0 0 0.0267 0 0 0 0 0 0.0213 0 0 0 0 0 0.018 0 0 0 0 -0.0067 0.0922 0.0055 0 0 0 0 0.0266 0 0 0 0 0 0.0228 0 0 0 0 0 0.015 0 0 0 0 -0.0067 0.0925 -0.0113 0 0 0 0 0.0247 0 0 0 0 0 0.0221 0 0 0 0 0 0.018 0 0 0 0 -0.0066 0.0935 -0.0272 0 0 0 0 0.0163 0 0 0 0 0 0.0171 0 0 0 0 0 0.018 0 0 0 0 1.78814e-05 32.7153 2.38419e-05 20.1028 -8.53773e-07 3.6604 -19.047 5.96046e-06 -7.15256e-05 40.5748 -4.08304 0.256948 -30.4163 1.19209e-05 -4.76837e-05 4.25782 0.326841 4.38143 -28.5372 0 2.38419e-05 24.2808 1.4631 4.52121 -0.0062 0.0497 0.0339 0 0 0 0 0.0215 0 0 0 0 0 0.022 0 0 0 0 0 0.017 0 0 0 0 0.0068 0.0873 0.0207 0 0 0 0 0.0267 0 0 0 0 0 0.0213 0 0 0 0 0 0.018 0 0 0 0 0.0067 0.0922 0.0055 0 0 0 0 0.0266 0 0 0 0 0 0.0228 0 0 0 0 0 0.015 0 0 0 0 0.0067 0.0925 -0.0113 0 0 0 0 0.0247 0 0 0 0 0 0.0221 0 0 0 0 0 0.018 0 0 0 0 0.0066 0.0935 -0.0272 0 0 0 0 0.0163 0 0 0 0 0 0.0171 0 0 0 0 0 0.018 0 0 0 0 1.78814e-05 32.7153 2.38419e-05 1.44246 2.79786 -0.0704251 -2.98023e-06 24.688 -2.38419e-05 1.03453e-05 -1.00852e-05 -8.53774e-07 
-22.8641 24.75 -317.357 1.13914 1.08855 -6.25466 7.80854 -7.46561 2.24922 1.65927 -4.48001 -1.28039 0 -55.8108 0 -8.49557 14.5572 8.82091e-07 0 -41.6913 9.53674e-05 8.03843 -17.5271 6.70858 -7.86206 -7.53746 1.38006 -0.274903 -5.37532 -3.3845 0 -55.3301 4.76837e-05 0.769398 18.0733 0 0 -42.7762 0 0.535289 -23.45 0.241188 -5.96046e-06 6.32526 -6.32527 -0.455362 -4.14701 0.886291 0 32.7153 0 -18.4894 1.15259e-05 -4.03741 17.9623 1.19209e-05 0 -46.5589 29.337 6.2378 30.1731 -5.96046e-05 9.53674e-05 6.42446e-06 -1.19528e-05 -20.7678 28.9073 -2.38419e-05 -4.76837e-05 -14.4243 0.427914 -1.93332 0.0062 0.0497 0.0339 0 0 0 0 0.0215 0 0 0 0 0 0.022 0 0 0 0 0 0.017 0 0 0 0 -0.0068 0.0873 0.0207 0 0 0 0 0.0267 0 0 0 0 0 0.0213 0 0 0 0 0 0.018 0 0 0 0 -0.0067 0.0922 0.0055 0 0 0 0 0.0266 0 0 0 0 0 0.0228 0 0 0 0 0 0.015 0 0 0 0 -0.0067 0.0925 -0.0113 0 0 0 0 0.0247 0 0 0 0 0 0.0221 0 0 0 0 0 0.018 0 0 0 0 -0.0066 0.0935 -0.0272 0 0 0 0 0.0163 0 0 0 0 0 0.0171 0 0 0 0 0 0.018 0 0 0 0 0 32.7153 0 20.2953 -2.98821e-06 3.79965 -19.0845 1.78814e-05 -4.76837e-05 46.0772 -3.38681 -1.14887 -30.4292 0 -2.38419e-05 8.23098 1.09777 7.5446 -26.3422 0 7.15256e-05 20.4414 0.675715 2.08225 -0.0062 0.0497 0.0339 0 0 0 0 0.0215 0 0 0 0 0 0.022 0 0 0 0 0 0.017 0 0 0 0 0.0068 0.0873 0.0207 0 0 0 0 0.0267 0 0 0 0 0 0.0213 0 0 0 0 0 0.018 0 0 0 0 0.0067 0.0922 0.0055 0 0 0 0 0.0266 0 0 0 0 0 0.0228 0 0 0 0 0 0.015 0 0 0 0 0.0067 0.0925 -0.0113 0 0 0 0 0.0247 0 0 0 0 0 0.0221 0 0 0 0 0 0.018 0 0 0 0 0.0066 0.0935 -0.0272 0 0 0 0 0.0163 0 0 0 0 0 0.0171 0 0 0 0 0 0.018 0 0 0 0 0 32.7153 0 1.61552 3.06842 -0.0864995 0 24.5611 -2.38419e-05 9.6408e-06 -9.69834e-06 0 
-22.6973 23.965 -317.385 1.28219 1.31056 -6.59347 7.81848 -7.48265 2.18277 0.977632 -4.69168 -0.71285 -1.19209e-05 -55.7174 2.38419e-05 -8.19768 15.5656 -1.77256e-06 -5.96046e-06 -41.3375 -4.76837e-05 9.02715 -20.0041 7.86122 -7.86298 -7.55571 1.41678 0.557776 -5.19764 -2.6562 0 -55.6162 2.38419e-05 -0.859272 17.9636 -3.5901e-06 -5.96046e-06 -41.8775 2.38419e-05 0.133066 -25.9028 -0.0937849 5.96046e-06 6.32677 -6.3267 -0.398637 -4.17305 0.894509 -1.78814e-05 32.7153 4.76837e-05 -18.9717 1.15259e-05 -4.59068 17.9065 1.19209e-05 -2.38419e-05 -50.8966 29.0909 6.91971 29.931 0 0 2.26256e-06 3.4151e-06 -21.4959 26.8621 1.19209e-05 0 -13.4094 0.301754 -2.35694 0.0062 0.0497 0.0339 0 0 0 0 0.0215 0 0 0 0 0 0.022 0 0 0 0 0 0.017 0 0 0 0 -0.0068 0.0873 0.0207 0 0 0 0 0.0267 0 0 0 0 0 0.0213 0 0 0 0 0 0.018 0 0 0 0 -0.0067 0.0922 0.0055 0 0 0 0 0.0266 0 0 0 0 0 0.0228 0 0 0 0 0 0.015 0 0 0 0 -0.0067 0.0925 -0.0113 0 0 0 0 0.0247 0 0 0 0 0 0.0221 0 0 0 0 0 0.018 0 0 0 0 -0.0066 0.0935 -0.0272 0 0 0 0 0.0163 0 0 0 0 0 0.0171 0 0 0 0 0 0.018 0 0 0 0 -1.78814e-05 32.7153 4.76837e-05 20.5317 0 4.29552 -19.1343 1.19209e-05 -9.53674e-05 49.5632 -3.4326 -2.3395 -30.1656 -1.78814e-05 -4.76837e-05 10.0353 1.75874 9.83905 -25.1649 0 7.15256e-05 16.7277 0.432557 2.3881 -0.0062 0.0497 0.0339 0 0 0 0 0.0215 0 0 0 0 0 0.022 0 0 0 0 0 0.017 0 0 0 0 0.0068 0.0873 0.0207 0 0 0 0 0.0267 0 0 0 0 0 0.0213 0 0 0 0 0 0.018 0 0 0 0 0.0067 0.0922 0.0055 0 0 0 0 0.0266 0 0 0 0 0 0.0228 0 0 0 0 0 0.015 0 0 0 0 0.0067 0.0925 -0.0113 0 0 0 0 0.0247 0 0 0 0 0 0.0221 0 0 0 0 0 0.018 0 0 0 0 0.0066 0.0935 -0.0272 0 0 0 0 0.0163 0 0 0 0 0 0.0171 0 0 0 0 0 0.018 0 0 0 0 -1.78814e-05 32.7153 4.76837e-05 1.44942 3.82678 -0.0967528 1.19209e-05 24.5526 -7.15256e-05 1.0252e-05 -1.02986e-05 -4.26887e-07 
